<svg xmlns="http://www.w3.org/2000/svg" viewBox="0 0 900 900" fill="none">
  <g stroke="#9f0b4e" stroke-width="2.2" stroke-linecap="round" stroke-linejoin="round" opacity="0.55">
    <path d="M105 130c70-55 180-62 250-8c65 50 74 145 30 212c-45 67-135 104-212 80c-77-24-129-109-116-187c8-49 20-73 48-97z"/>
    <path d="M142 168c55-43 141-47 196-5c52 39 58 112 24 166c-35 54-106 83-166 64c-59-18-98-84-88-145c6-37 16-56 34-80z"/>
    <path d="M176 202c40-31 104-35 145-4c40 30 44 82 18 123c-27 42-79 64-123 51c-43-13-72-62-64-106c5-29 12-44 24-64z"/>

    <path d="M600 84c58-38 143-43 196-7c54 37 71 110 45 171c-27 62-95 109-160 109c-66 0-128-47-148-110c-20-63 3-129 67-163z"/>
    <path d="M627 118c45-29 111-33 152-6c42 28 56 84 36 132c-21 48-74 84-124 84c-50 0-98-35-113-84c-15-48 2-100 49-126z"/>
    <path d="M651 150c32-21 79-23 109-5c31 20 41 61 26 96c-15 35-53 62-90 62c-36 0-70-25-81-60c-11-35 2-73 36-93z"/>

    <path d="M487 470c67-49 174-53 242-10c70 43 101 135 76 215c-26 80-106 145-191 154c-85 8-171-40-212-115c-41-76-32-182 27-244c18-20 34-31 58-40z"/>
    <path d="M520 505c52-38 136-41 189-8c54 33 78 105 58 166c-20 62-82 112-147 118c-66 6-132-31-164-89c-32-58-24-140 21-188c14-16 27-24 43-31z"/>
    <path d="M552 538c38-27 99-30 139-7c39 24 57 77 43 122c-15 45-61 80-109 84c-48 5-97-22-120-65c-24-42-18-101 15-136c10-12 20-19 32-25z"/>

    <path d="M171 528c46-30 112-34 156-6c45 29 59 86 37 135c-22 49-77 86-131 87c-55 2-107-33-123-84c-17-50 3-104 61-132z"/>
    <path d="M197 558c34-22 84-25 117-4c34 21 45 64 29 100c-16 37-57 64-97 66c-41 1-79-24-92-62c-13-37 3-76 43-96z"/>

    <path d="M61 742c55-34 135-36 188-3c54 33 74 98 51 156c-23 58-86 100-148 101c-63 1-123-38-142-96c-19-58 4-120 51-158z"/>
    <path d="M94 773c40-24 99-26 138-2c40 24 55 71 37 113c-18 43-63 73-109 74c-46 1-89-28-102-71c-14-42 2-87 36-114z"/>
  </g>
</svg>
